# xmcd
#
# Track frame offsets:
#       150
#       10008
#       21913
#       27893
#       37288
#       49094
#       59433
#       67370
#       73931
#       82488
#       90429
#       97479
#       105138
#       115943
#       124261
#       135363
#
# Disc length: 1994 seconds
#
# Revision: 1
# Processed by: cddbd v1.5.2PL0 Copyright (c) Steve Scherf et al.
# Submitted via: WhereIsIt 2010.1026
#
DISCID=e907c810
DTITLE=Jim Reeves - Jim Reeves - Ultimate Legends
DYEAR=1900
DGENRE=
TTITLE0=Dear Hearts And Gentle People
TTITLE1=I've Lived A Lot In My Time
TTITLE2=Have I Told You Lately That I Love You
TTITLE3=Home
TTITLE4=Your Old Love Letters
TTITLE5=Just Call Me Lonesome
TTITLE6=Roly Poly
TTITLE7=I'm Beginning To Forget You
TTITLE8=If You Were Mine
TTITLE9=Till The End Of The World
TTITLE10=Everywhere You Go
TTITLE11=The Oklahoma Hills
TTITLE12=I Love You More
TTITLE13=Wind Up Doll
TTITLE14=If Heartaches Are The Fashion
TTITLE15=The Highway To Nowhere
EXTD=
EXTT0=
EXTT1=
EXTT2=
EXTT3=
EXTT4=
EXTT5=
EXTT6=
EXTT7=
EXTT8=
EXTT9=
EXTT10=
EXTT11=
EXTT12=
EXTT13=
EXTT14=
EXTT15=
PLAYORDER=
